<mxfile host="app.diagrams.net" modified="2021-01-31T13:57:05.994Z" agent="5.0 (Windows)" etag="w6P5s7INcO1zAxSjltZz" version="14.2.9" type="github">
  <diagram id="C5RBs43oDa-KdzZeNtuy" name="Page-1">
    <mxGraphModel dx="866" dy="1799" grid="1" gridSize="10" guides="1" tooltips="1" connect="1" arrows="1" fold="1" page="1" pageScale="1" pageWidth="827" pageHeight="1169" math="0" shadow="0">
      <root>
        <mxCell id="WIyWlLk6GJQsqaUBKTNV-0" />
        <mxCell id="WIyWlLk6GJQsqaUBKTNV-1" parent="WIyWlLk6GJQsqaUBKTNV-0" />
        <mxCell id="-_6q-JlFTWqBtLtXK-LW-0" value="Car" style="rounded=0;whiteSpace=wrap;html=1;" vertex="1" parent="WIyWlLk6GJQsqaUBKTNV-1">
          <mxGeometry x="150" y="260" width="90" height="40" as="geometry" />
        </mxCell>
        <mxCell id="-_6q-JlFTWqBtLtXK-LW-1" value="&lt;span style=&quot;left: 174.627px ; top: 610.244px ; font-size: 16.3652px ; font-family: sans-serif ; transform: scalex(0.991769)&quot;&gt;maintenance &lt;/span&gt;" style="rounded=0;whiteSpace=wrap;html=1;" vertex="1" parent="WIyWlLk6GJQsqaUBKTNV-1">
          <mxGeometry x="490" y="255" width="110" height="50" as="geometry" />
        </mxCell>
        <mxCell id="-_6q-JlFTWqBtLtXK-LW-2" value="hat" style="rhombus;whiteSpace=wrap;html=1;" vertex="1" parent="WIyWlLk6GJQsqaUBKTNV-1">
          <mxGeometry x="320" y="240" width="80" height="80" as="geometry" />
        </mxCell>
        <mxCell id="-_6q-JlFTWqBtLtXK-LW-4" value="" style="endArrow=none;html=1;exitX=1;exitY=0.5;exitDx=0;exitDy=0;entryX=0;entryY=0.5;entryDx=0;entryDy=0;" edge="1" parent="WIyWlLk6GJQsqaUBKTNV-1" source="-_6q-JlFTWqBtLtXK-LW-0" target="-_6q-JlFTWqBtLtXK-LW-2">
          <mxGeometry width="50" height="50" relative="1" as="geometry">
            <mxPoint x="380" y="480" as="sourcePoint" />
            <mxPoint x="430" y="430" as="targetPoint" />
          </mxGeometry>
        </mxCell>
        <mxCell id="-_6q-JlFTWqBtLtXK-LW-5" value="" style="endArrow=none;html=1;entryX=1;entryY=0.5;entryDx=0;entryDy=0;" edge="1" parent="WIyWlLk6GJQsqaUBKTNV-1" source="-_6q-JlFTWqBtLtXK-LW-1" target="-_6q-JlFTWqBtLtXK-LW-2">
          <mxGeometry width="50" height="50" relative="1" as="geometry">
            <mxPoint x="380" y="480" as="sourcePoint" />
            <mxPoint x="430" y="430" as="targetPoint" />
          </mxGeometry>
        </mxCell>
        <mxCell id="-_6q-JlFTWqBtLtXK-LW-12" value="&lt;span style=&quot;left: 174.627px ; top: 760.258px ; font-size: 16.3652px ; font-family: sans-serif ; transform: scalex(0.991566)&quot;&gt;type&lt;/span&gt;" style="ellipse;whiteSpace=wrap;html=1;" vertex="1" parent="WIyWlLk6GJQsqaUBKTNV-1">
          <mxGeometry x="650" y="250" width="90" height="40" as="geometry" />
        </mxCell>
        <mxCell id="-_6q-JlFTWqBtLtXK-LW-13" value="&lt;span style=&quot;left: 174.627px ; top: 674.536px ; font-size: 16.3652px ; font-family: sans-serif ; transform: scalex(0.991609)&quot;&gt;status&lt;/span&gt;" style="ellipse;whiteSpace=wrap;html=1;" vertex="1" parent="WIyWlLk6GJQsqaUBKTNV-1">
          <mxGeometry x="610" y="190" width="90" height="40" as="geometry" />
        </mxCell>
        <mxCell id="-_6q-JlFTWqBtLtXK-LW-14" value="&lt;span style=&quot;left: 174.627px ; top: 653.105px ; font-size: 16.3652px ; font-family: sans-serif ; transform: scalex(0.991638)&quot;&gt;date &lt;/span&gt;" style="ellipse;whiteSpace=wrap;html=1;" vertex="1" parent="WIyWlLk6GJQsqaUBKTNV-1">
          <mxGeometry x="540" y="150" width="90" height="40" as="geometry" />
        </mxCell>
        <mxCell id="-_6q-JlFTWqBtLtXK-LW-17" value="" style="endArrow=none;html=1;" edge="1" parent="WIyWlLk6GJQsqaUBKTNV-1" source="-_6q-JlFTWqBtLtXK-LW-1" target="-_6q-JlFTWqBtLtXK-LW-14">
          <mxGeometry width="50" height="50" relative="1" as="geometry">
            <mxPoint x="380" y="480" as="sourcePoint" />
            <mxPoint x="430" y="430" as="targetPoint" />
          </mxGeometry>
        </mxCell>
        <mxCell id="-_6q-JlFTWqBtLtXK-LW-18" value="1" style="text;html=1;align=center;verticalAlign=middle;resizable=0;points=[];autosize=1;" vertex="1" parent="WIyWlLk6GJQsqaUBKTNV-1">
          <mxGeometry x="240" y="260" width="20" height="20" as="geometry" />
        </mxCell>
        <mxCell id="-_6q-JlFTWqBtLtXK-LW-20" value="m" style="text;html=1;align=center;verticalAlign=middle;resizable=0;points=[];autosize=1;" vertex="1" parent="WIyWlLk6GJQsqaUBKTNV-1">
          <mxGeometry x="445" y="260" width="30" height="20" as="geometry" />
        </mxCell>
        <mxCell id="-_6q-JlFTWqBtLtXK-LW-21" value="" style="endArrow=none;html=1;" edge="1" parent="WIyWlLk6GJQsqaUBKTNV-1" source="-_6q-JlFTWqBtLtXK-LW-1" target="-_6q-JlFTWqBtLtXK-LW-13">
          <mxGeometry width="50" height="50" relative="1" as="geometry">
            <mxPoint x="380" y="480" as="sourcePoint" />
            <mxPoint x="430" y="430" as="targetPoint" />
          </mxGeometry>
        </mxCell>
        <mxCell id="-_6q-JlFTWqBtLtXK-LW-22" value="" style="endArrow=none;html=1;" edge="1" parent="WIyWlLk6GJQsqaUBKTNV-1" source="-_6q-JlFTWqBtLtXK-LW-1" target="-_6q-JlFTWqBtLtXK-LW-12">
          <mxGeometry width="50" height="50" relative="1" as="geometry">
            <mxPoint x="380" y="480" as="sourcePoint" />
            <mxPoint x="430" y="430" as="targetPoint" />
          </mxGeometry>
        </mxCell>
        <mxCell id="-_6q-JlFTWqBtLtXK-LW-23" value="&lt;u&gt;&lt;span style=&quot;left: 174.627px ; top: 502.701px ; font-size: 16.3652px ; font-family: sans-serif ; transform: scalex(0.996071)&quot;&gt;number&lt;/span&gt;&lt;/u&gt;" style="ellipse;whiteSpace=wrap;html=1;" vertex="1" parent="WIyWlLk6GJQsqaUBKTNV-1">
          <mxGeometry x="140" y="180" width="70" height="40" as="geometry" />
        </mxCell>
        <mxCell id="-_6q-JlFTWqBtLtXK-LW-24" value="" style="endArrow=none;html=1;exitX=0.5;exitY=0;exitDx=0;exitDy=0;" edge="1" parent="WIyWlLk6GJQsqaUBKTNV-1" source="-_6q-JlFTWqBtLtXK-LW-0" target="-_6q-JlFTWqBtLtXK-LW-23">
          <mxGeometry width="50" height="50" relative="1" as="geometry">
            <mxPoint x="195" y="270" as="sourcePoint" />
            <mxPoint x="430" y="430" as="targetPoint" />
          </mxGeometry>
        </mxCell>
        <mxCell id="-_6q-JlFTWqBtLtXK-LW-25" value="LMD" style="ellipse;whiteSpace=wrap;html=1;" vertex="1" parent="WIyWlLk6GJQsqaUBKTNV-1">
          <mxGeometry x="50" y="190" width="80" height="40" as="geometry" />
        </mxCell>
        <mxCell id="-_6q-JlFTWqBtLtXK-LW-26" value="" style="endArrow=none;html=1;entryX=0.25;entryY=0;entryDx=0;entryDy=0;" edge="1" parent="WIyWlLk6GJQsqaUBKTNV-1" source="-_6q-JlFTWqBtLtXK-LW-25" target="-_6q-JlFTWqBtLtXK-LW-0">
          <mxGeometry width="50" height="50" relative="1" as="geometry">
            <mxPoint x="120" y="370" as="sourcePoint" />
            <mxPoint x="140" y="330" as="targetPoint" />
          </mxGeometry>
        </mxCell>
        <mxCell id="-_6q-JlFTWqBtLtXK-LW-27" value="&lt;u&gt;&lt;font style=&quot;font-size: 11px&quot;&gt;&lt;span style=&quot;left: 174.627px ; top: 610.244px ; font-size: 16.3652px ; font-family: sans-serif ; transform: scalex(0.991769)&quot;&gt;maintenance &lt;/span&gt;ID&lt;/font&gt;&lt;/u&gt;" style="ellipse;whiteSpace=wrap;html=1;" vertex="1" parent="WIyWlLk6GJQsqaUBKTNV-1">
          <mxGeometry x="395" y="150" width="130" height="40" as="geometry" />
        </mxCell>
        <mxCell id="-_6q-JlFTWqBtLtXK-LW-28" value="" style="endArrow=none;html=1;" edge="1" parent="WIyWlLk6GJQsqaUBKTNV-1" source="-_6q-JlFTWqBtLtXK-LW-27" target="-_6q-JlFTWqBtLtXK-LW-1">
          <mxGeometry width="50" height="50" relative="1" as="geometry">
            <mxPoint x="380" y="480" as="sourcePoint" />
            <mxPoint x="430" y="430" as="targetPoint" />
          </mxGeometry>
        </mxCell>
        <mxCell id="-_6q-JlFTWqBtLtXK-LW-29" value="Location" style="rounded=0;whiteSpace=wrap;html=1;" vertex="1" parent="WIyWlLk6GJQsqaUBKTNV-1">
          <mxGeometry x="145" y="480" width="100" height="30" as="geometry" />
        </mxCell>
        <mxCell id="-_6q-JlFTWqBtLtXK-LW-35" value="hat" style="rhombus;whiteSpace=wrap;html=1;" vertex="1" parent="WIyWlLk6GJQsqaUBKTNV-1">
          <mxGeometry x="165" y="360" width="60" height="60" as="geometry" />
        </mxCell>
        <mxCell id="-_6q-JlFTWqBtLtXK-LW-36" value="" style="endArrow=none;html=1;exitX=0.5;exitY=1;exitDx=0;exitDy=0;entryX=0.5;entryY=0;entryDx=0;entryDy=0;" edge="1" parent="WIyWlLk6GJQsqaUBKTNV-1" source="-_6q-JlFTWqBtLtXK-LW-35" target="-_6q-JlFTWqBtLtXK-LW-29">
          <mxGeometry width="50" height="50" relative="1" as="geometry">
            <mxPoint x="380" y="480" as="sourcePoint" />
            <mxPoint x="430" y="430" as="targetPoint" />
          </mxGeometry>
        </mxCell>
        <mxCell id="-_6q-JlFTWqBtLtXK-LW-37" value="" style="endArrow=none;html=1;" edge="1" parent="WIyWlLk6GJQsqaUBKTNV-1" source="-_6q-JlFTWqBtLtXK-LW-35" target="-_6q-JlFTWqBtLtXK-LW-0">
          <mxGeometry width="50" height="50" relative="1" as="geometry">
            <mxPoint x="380" y="480" as="sourcePoint" />
            <mxPoint x="430" y="430" as="targetPoint" />
          </mxGeometry>
        </mxCell>
        <mxCell id="-_6q-JlFTWqBtLtXK-LW-38" value="1" style="text;html=1;align=center;verticalAlign=middle;resizable=0;points=[];autosize=1;" vertex="1" parent="WIyWlLk6GJQsqaUBKTNV-1">
          <mxGeometry x="200" y="460" width="20" height="20" as="geometry" />
        </mxCell>
        <mxCell id="-_6q-JlFTWqBtLtXK-LW-39" value="n" style="text;html=1;align=center;verticalAlign=middle;resizable=0;points=[];autosize=1;" vertex="1" parent="WIyWlLk6GJQsqaUBKTNV-1">
          <mxGeometry x="200" y="300" width="20" height="20" as="geometry" />
        </mxCell>
      </root>
    </mxGraphModel>
  </diagram>
</mxfile>
